<svg xmlns="http://www.w3.org/2000/svg" viewBox="0 0 512 512">
  <rect width="512" height="512" rx="100" fill="#0d9488"/>
  <path fill="white" d="M352 240h32l-8.4-8.4c-3.6-3.6-5.6-8.5-5.6-13.6V192c0-44.2-35.8-80-80-80v-16c0-17.7-14.3-32-32-32s-32 14.3-32 32v16c-44.2 0-80 35.8-80 80v26c0 5.1-2 10-5.6 13.6L132 240h32m188 0H160m192 0v8c0 44.2-35.8 80-80 80h-32c-44.2 0-80-35.8-80-80v-8m192 0H160m96 136v8c0 26.5-21.5 48-48 48s-48-21.5-48-48v-8" stroke="white" stroke-width="24" stroke-linecap="round" stroke-linejoin="round" fill="none"/>
</svg>
